# xmcd CD database file
#
# Track frame offsets:
#	150
#	34421
#	59014
#	77712
#	96423
#	116431
#	144240
#	174317
#	198902
#	229623
#	260001
#
# Disc length: 3726 seconds
#
# Revision: 0
# Processed by: cddbd v1.5.2PL0 Copyright (c) Steve Scherf et al.
# Submitted via: CDex 1.70beta2
#
DISCID=950e8c0b
DTITLE=Alboran Trio - Near Gale
DYEAR=2008
DGENRE=Jazz
TTITLE0=Selon Moi
TTITLE1=Autumn Mist
TTITLE2=Delle Cose Nascoste 
TTITLE3=Also Sprach Raul
TTITLE4=Rock In The Dark
TTITLE5=Fuori Satgione
TTITLE6=Invariable Geometries
TTITLE7=Olvido
TTITLE8=Pow Wow
TTITLE9=Selon Moi 3-4
TTITLE10=Seguendo Il Filo
EXTD=YEAR: 2008
EXTT0=
EXTT1=
EXTT2=
EXTT3=
EXTT4=
EXTT5=
EXTT6=
EXTT7=
EXTT8=
EXTT9=
EXTT10=
PLAYORDER=
